<?xml version="1.0" encoding="UTF-8"?>
<svg width="200" height="32" id="_图层_2" data-name="图层 2" xmlns="http://www.w3.org/2000/svg" xmlns:xlink="http://www.w3.org/1999/xlink" viewBox="0 0 225.64 35.21">
  <defs>
    <style>
      .cls-1 {
        stroke-width: 18.79px;
      }

      .cls-1, .cls-2 {
        fill: #231815;
        stroke: #000;
      }

      .cls-3 {
        mask: url(#mask);
      }

      .cls-4 {
        fill: #f5ab13;
      }

      .cls-5 {
        fill: #fe0000;
      }

      .cls-6 {
        fill: #ff6400;
      }

      .cls-7 {
        fill: #cb00ff;
      }

      .cls-8 {
        fill: #130dff;
      }

      .cls-2 {
        stroke-miterlimit: 10;
      }

      .cls-9 {
        mask: url(#mask-1);
      }
    </style>
    <mask id="mask" x="134.75" y="9.97" width="4.65" height="9.3" maskUnits="userSpaceOnUse"/>
    <mask id="mask-1" x="134.75" y="16.51" width="4.65" height="9.3" maskUnits="userSpaceOnUse"/>
  </defs>
  <g id="_图层_1-2" data-name="图层 1">
    <g>
      <path class="cls-6" d="M19.65,25.17c-4.08,.48-7.66-2.05-8.93-3.37-2.82-2.13-2.88-5.94-2.55-7.58,.76-4.61,4.37-5.21,6.08-4.94-.6-.33-1.16-.7-1.66-1.08,0,0,0,0,0,0-.07-.05-.13-.1-.2-.15-.44-.34-.99-.83-1.56-1.43-.98-1.04-1.64-2.07-2.09-2.91,0,0-.2,.07-.2,.07,0,0-.32,.12-.33,.12,0,0,0,.02,0,.03-2.68,1.17-4.61,3.25-5.28,4.19C-.75,13.61-.01,18.72,.83,20.61c2.04,6.24,7.8,8.43,10.43,8.74,7.63,.98,12.14-3.99,13.44-6.6-.83,1.28-3.72,2.2-5.05,2.42Z"/>
      <g>
        <path class="cls-2" d="M43.36,9.99h12.32c1.53,0,2.77,1.24,2.77,2.77h-12.32c-1.53,0-2.77-1.24-2.77-2.77h0Z"/>
        <path class="cls-2" d="M99.93,12.76h13.07c1.53,0,2.77-1.24,2.77-2.77h-13.07c-1.53,0-2.77,1.24-2.77,2.77h0Z"/>
        <path class="cls-2" d="M180.64,12.76h-15.34c-1.53,0-2.77-1.24-2.77-2.77h15.34c1.53,0,2.77,1.24,2.77,2.77h0Z"/>
        <path class="cls-2" d="M72.78,9.99h14.58v2.77h-11.82c-1.53,0-2.77-1.24-2.77-2.77h0Z"/>
        <path class="cls-2" d="M72.78,16.78c0-.42,.34-.76,.76-.76h13.83v2.77h-12.57c-1.11,0-2.01-.9-2.01-2.01h0Z"/>
        <path class="cls-2" d="M43.36,17.28h12.32c1.53,0,2.77,1.24,2.77,2.77h-12.32c-1.53,0-2.77-1.24-2.77-2.77h0Z"/>
        <path class="cls-2" d="M99.93,19.29h13.07c1.53,0,2.77-1.24,2.77-2.77h-13.07c-1.53,0-2.77,1.24-2.77,2.77h0Z"/>
        <path class="cls-2" d="M99.93,25.83h13.07c1.53,0,2.77-1.24,2.77-2.77h-13.07c-1.53,0-2.77,1.24-2.77,2.77h0Z"/>
        <path class="cls-2" d="M39.34,25.58V12.76c0-1.53,1.24-2.77,2.77-2.77h0v12.82c0,1.53-1.24,2.77-2.77,2.77h0Z"/>
        <path class="cls-2" d="M96.66,25.58V15.52c0-1.53,1.24-2.77,2.77-2.77h0v10.06c0,1.53-1.24,2.77-2.77,2.77h0Z"/>
        <path class="cls-2" d="M186.67,12.76h13.07c1.53,0,2.77-1.24,2.77-2.77h-13.07c-1.53,0-2.77,1.24-2.77,2.77h0Z"/>
        <path class="cls-2" d="M186.67,19.29h13.07c1.53,0,2.77-1.24,2.77-2.77h-13.07c-1.53,0-2.77,1.24-2.77,2.77h0Z"/>
        <path class="cls-2" d="M186.42,25.83h13.07c1.53,0,2.77-1.24,2.77-2.77h-13.07c-1.53,0-2.77,1.24-2.77,2.77h0Z"/>
        <path class="cls-2" d="M183.41,25.58V15.52c0-1.53,1.24-2.77,2.77-2.77h0v10.06c0,1.53-1.24,2.77-2.77,2.77h0Z"/>
        <path class="cls-2" d="M151.47,25.83c-.42,0-.75-.34-.75-.75v-7.54c0-.42,.34-.75,.75-.75h1.26c.42,0,.75,.34,.75,.75v7.54c0,.42-.34,.75-.75,.75h-1.26Z"/>
        <path class="cls-2" d="M170.83,25.83c-.42,0-.75-.34-.75-.75V15.77c0-.42,.34-.75,.75-.75h1.26c.42,0,.75,.34,.75,.75v9.3c0,.42-.34,.75-.75,.75h-1.26Z"/>
        <path class="cls-2" d="M63.47,25.58V12.76c0-1.53,1.24-2.77,2.77-2.77h0v12.82c0,1.53-1.24,2.77-2.77,2.77h0Z"/>
        <path class="cls-2" d="M90.14,25.56l-10.07-6.82,1.5-2.21,7.86,5.33c1.22,.83,1.54,2.49,.71,3.71h0Z"/>
        <path class="cls-2" d="M150.38,16c-.22,.35-.69,.46-1.04,.23l-5.96-3.77c-.35-.22-.46-.69-.23-1.04l.67-1.06c.22-.35,.69-.46,1.04-.23l5.96,3.78c.35,.22,.46,.69,.23,1.04l-.67,1.06Z"/>
        <path class="cls-2" d="M153.37,16c.22,.35,.69,.46,1.04,.23l5.96-3.77c.35-.22,.46-.69,.23-1.04l-.67-1.06c-.22-.35-.69-.46-1.04-.23l-5.96,3.78c-.35,.22-.46,.69-.23,1.04l.67,1.06Z"/>
        <path class="cls-2" d="M72.78,25.58v-9.17c0-.21,.17-.38,.38-.38h2.38v6.79c0,1.53-1.24,2.77-2.77,2.77h0Z"/>
        <path class="cls-2" d="M87.22,18.76c1.16,0,2.28-.46,3.1-1.28,.82-.82,1.29-1.94,1.29-3.1,0-1.16-.46-2.28-1.28-3.1s-1.94-1.29-3.1-1.29v2.76c.43,0,.85,.17,1.15,.48,.31,.31,.48,.72,.48,1.15,0,.43-.17,.85-.48,1.15-.31,.31-.72,.48-1.15,.48v2.76Z"/>
        <path class="cls-2" d="M225.14,9.72h-13.76v2.68h11.08c1.48,0,2.68-1.2,2.68-2.68h0Z"/>
        <path class="cls-2" d="M206.03,25.31h14.51v-2.68h-11.84c-1.48,0-2.68,1.2-2.68,2.68h0Z"/>
        <path class="cls-2" d="M211.38,16.26h9.16v2.68h-9.16v-2.68Z"/>
        <path class="cls-2" d="M220.49,25.31c1.23,0,2.41-.5,3.28-1.37,.87-.87,1.37-1.9,1.37-3.13,0-1.23-.5-2.41-1.37-3.28-.87-.87-2.05-1.28-3.29-1.28v2.68c.53,0,1.03,.12,1.4,.49,.37,.37,.58,.87,.58,1.39,0,.52-.22,.87-.59,1.24-.37,.37-.87,.57-1.39,.57v2.68Z"/>
        <path class="cls-2" d="M211.38,9.72c-.86,0-1.7,.24-2.43,.69-.66,.4-1.2,.96-1.59,1.63-.04,.08-.5,.95-.53,1.46h2.79c.17-.33,.41-.62,.72-.81,.31-.19,.67-.29,1.03-.29v-2.68Z"/>
        <path class="cls-2" d="M206.86,16.26c.36,.84,.87,1.52,1.63,2.02,.76,.5,1.98,.65,2.89,.65v-2.67c-.39,0-1.01,.01-1.39,.01-.5,0-.88,0-1.26-.01h-1.89Z"/>
        <path class="cls-2" d="M120.3,9.97h14.58v2.77h-11.82c-1.53,0-2.77-1.24-2.77-2.77h0Z"/>
        <path class="cls-2" d="M127.84,16.51h7.04v2.77h-4.27c-1.53,0-2.77-1.24-2.77-2.77h0Z"/>
        <path class="cls-2" d="M123.56,23.05h11.31v2.77h-11.31v-2.77Z"/>
        <path class="cls-2" d="M121.07,25.81l.68-8.23c.13-1.51,1.38-2.67,2.9-2.67h0l-.91,10.89h-2.68Z"/>
        <g class="cls-3">
          <path class="cls-1" d="M134.75,9.97c1.23,0,2.42,.49,3.29,1.36,.87,.87,1.36,2.06,1.36,3.29s-.49,2.42-1.36,3.29c-.87,.87-2.06,1.36-3.29,1.36v-2.75c.5,0,.99-.2,1.35-.56,.36-.36,.56-.84,.56-1.35s-.2-.99-.56-1.35c-.36-.36-.84-.56-1.35-.56v-2.75Z"/>
        </g>
        <g class="cls-9">
          <path class="cls-1" d="M134.75,16.51c1.23,0,2.42,.49,3.29,1.36,.87,.87,1.36,2.06,1.36,3.29s-.49,2.42-1.36,3.29c-.87,.87-2.06,1.36-3.29,1.36v-2.75c.5,0,.99-.2,1.34-.56,.36-.36,.56-.84,.56-1.34s-.2-.99-.56-1.34c-.36-.36-.84-.56-1.34-.56v-2.75Z"/>
        </g>
      </g>
      <path class="cls-4" d="M10.52,21.67c-3.82-3.89-2.45-8.5-1.33-10.21-3.22,3.69-2.47,8.42-1.66,10.21,1.52,4.48,6.16,5.96,8.28,6.14,4.81,.41,7.65-2.91,8.88-5.05-.61,.74-2.66,1.7-3.67,2.06-4.16,1.52-8.74-1.43-10.51-3.15Z"/>
      <path class="cls-8" d="M26.87,16.19c0,4.68-3.79,8.47-8.47,8.47-2.27,0-4.34-.9-5.86-2.35,1.12,.49,2.36,.76,3.66,.76,1.82,0,3.51-.53,4.94-1.44,0,0,0,0,0,0,2.91-1.54,4.9-4.6,4.9-8.12,0-.37-.02-.73-.06-1.09,.57,1.14,.89,2.42,.89,3.78Z"/>
      <path class="cls-7" d="M23.68,9.35c2.5,3.83,1.42,8.95-2.4,11.45-1.86,1.21-4.03,1.58-6.05,1.21,1.18-.2,2.33-.64,3.4-1.33,1.49-.97,2.59-2.31,3.27-3.82,0,0,0,0,0,0,1.56-2.81,1.55-6.38-.33-9.26-.2-.3-.41-.59-.63-.86,1.07,.63,2.02,1.51,2.75,2.62Z"/>
      <path class="cls-5" d="M21.79,12.28c0,2.81-1.33,5.32-3.4,6.92,.23-.87,.35-1.78,.35-2.73,0-3.77-1.93-7.1-4.85-9.04-.21-.14-.43-.27-.65-.4,0,0,0,0,0,0-1.17-.79-2.13-1.85-2.8-3.09-.64-1.17-1.01-2.51-1.04-3.93,1.18,1.79,3,3.11,5.13,3.66,.23,.06,.46,.11,.7,.15,2.39,.61,4.38,2.2,5.52,4.32,.67,1.23,1.05,2.65,1.05,4.15Z"/>
      <path class="cls-4" d="M9.82,6.95c-.91-.72-1.5-1.83-1.53-3.08C3.4,5.7,0,10.47,0,16c0,1.63,.3,3.2,.86,4.64-.12-.69-.19-1.4-.19-2.12,0-5.67,3.86-10.35,9.15-11.56Z"/>
    </g>
  </g>
</svg>