<?xml version="1.0" encoding="UTF-8"?>
<svg width="300" height="156"  id="_图层_2" data-name="图层 2" xmlns="http://www.w3.org/2000/svg" viewBox="0 0 733 458.36">
  <defs>
    <style>
      .cls-1 {
        stroke: #000;
        stroke-miterlimit: 10;
      }

      .cls-2 {
        fill: #f5ab13;
      }

      .cls-3 {
        fill: #fe0000;
      }

      .cls-4 {
        fill: #ff6400;
      }

      .cls-5 {
        fill: #cb00ff;
      }

      .cls-6 {
        fill: #130dff;
      }
    </style>
  </defs>
  <g id="_图层_2-2" data-name=" 图层 2">
    <path class="cls-4" d="M436.94,285.3c-46.3,5.42-86.81-23.19-101.28-38.17-32.01-24.13-32.63-67.31-28.94-85.89,8.62-52.21,49.56-59.1,68.95-56.03-6.83-3.79-13.1-7.93-18.82-12.24-.01,0-.02-.02-.04-.03-.77-.58-1.51-1.16-2.26-1.74-4.94-3.89-11.27-9.36-17.69-16.16-11.09-11.75-18.59-23.51-23.7-32.96-.03,0-2.24,.8-2.27,.81-.08,.03-3.65,1.31-3.73,1.33,0,.1,.02,.21,.03,.31-30.39,13.23-52.28,36.84-59.89,47.44-41.62,62.31-33.25,120.26-23.7,141.6,23.15,70.68,88.45,95.53,118.21,99.12,86.44,11.08,137.6-45.25,152.38-74.8-9.36,14.53-42.17,24.93-57.26,27.4h.01Z"/>
    <path class="cls-1" d="M16.35,395.46h48.54c6.02,0,10.9,4.88,10.9,10.9H27.24c-6.02,0-10.9-4.88-10.9-10.9h.01Z"/>
    <path class="cls-1" d="M239.22,406.36h51.51c6.02,0,10.9-4.88,10.9-10.9h-51.51c-6.02,0-10.9,4.88-10.9,10.9h0Z"/>
    <path class="cls-1" d="M557.17,406.36h-60.42c-6.02,0-10.9-4.88-10.9-10.9h60.42c6.02,0,10.9,4.88,10.9,10.9h0Z"/>
    <path class="cls-1" d="M132.24,395.46h57.45v10.9h-46.55c-6.02,0-10.9-4.88-10.9-10.9h0Z"/>
    <path class="cls-1" d="M132.24,422.22c0-1.65,1.34-2.98,2.98-2.98h54.47v10.9h-49.54c-4.37,0-7.91-3.54-7.91-7.91h0Z"/>
    <path class="cls-1" d="M16.35,424.18h48.54c6.02,0,10.9,4.88,10.9,10.9H27.24c-6.02,0-10.9-4.88-10.9-10.9h.01Z"/>
    <path class="cls-1" d="M239.22,432.11h51.51c6.02,0,10.9-4.88,10.9-10.9h-51.51c-6.02,0-10.9,4.88-10.9,10.9h0Z"/>
    <path class="cls-1" d="M239.22,457.86h51.51c6.02,0,10.9-4.88,10.9-10.9h-51.51c-6.02,0-10.9,4.88-10.9,10.9h0Z"/>
    <path class="cls-1" d="M.5,456.87v-50.52c0-6.02,4.88-10.9,10.9-10.9h0v50.52c0,6.02-4.88,10.9-10.9,10.9H.5Z"/>
    <path class="cls-1" d="M226.34,456.87v-39.62c0-6.02,4.88-10.9,10.9-10.9h0v39.62c0,6.02-4.88,10.9-10.9,10.9h0Z"/>
    <path class="cls-1" d="M580.95,406.36h51.51c6.02,0,10.9-4.88,10.9-10.9h-51.51c-6.02,0-10.9,4.88-10.9,10.9h0Z"/>
    <path class="cls-1" d="M580.95,432.11h51.51c6.02,0,10.9-4.88,10.9-10.9h-51.51c-6.02,0-10.9,4.88-10.9,10.9h0Z"/>
    <path class="cls-1" d="M579.95,457.86h51.51c6.02,0,10.9-4.88,10.9-10.9h-51.51c-6.02,0-10.9,4.88-10.9,10.9h0Z"/>
    <path class="cls-1" d="M568.07,456.87v-39.62c0-6.02,4.88-10.9,10.9-10.9h0v39.62c0,6.02-4.88,10.9-10.9,10.9h0Z"/>
    <path class="cls-1" d="M442.27,457.86c-1.64,0-2.97-1.33-2.97-2.97v-29.72c0-1.64,1.33-2.97,2.97-2.97h4.95c1.64,0,2.97,1.33,2.97,2.97v29.72c0,1.64-1.33,2.97-2.97,2.97h-4.95Z"/>
    <path class="cls-1" d="M518.54,457.86c-1.64,0-2.97-1.33-2.97-2.97v-36.65c0-1.64,1.33-2.97,2.97-2.97h4.95c1.64,0,2.97,1.33,2.97,2.97v36.65c0,1.64-1.33,2.97-2.97,2.97h-4.95Z"/>
    <path class="cls-1" d="M95.59,456.87v-50.52c0-6.02,4.88-10.9,10.9-10.9h0v50.52c0,6.02-4.88,10.9-10.9,10.9h0Z"/>
    <path class="cls-1" d="M200.64,456.8l-39.67-26.88,5.9-8.71,30.96,20.98c4.81,3.26,6.07,9.8,2.81,14.61h0Z"/>
    <path class="cls-1" d="M437.96,419.16c-.88,1.39-2.71,1.8-4.1,.92l-23.48-14.87c-1.39-.88-1.8-2.71-.92-4.1l2.65-4.18c.88-1.39,2.71-1.8,4.1-.92l23.48,14.87c1.39,.88,1.8,2.71,.92,4.1l-2.65,4.18Z"/>
    <path class="cls-1" d="M449.75,419.16c.88,1.39,2.71,1.8,4.1,.92l23.48-14.87c1.39-.88,1.8-2.71,.92-4.1l-2.65-4.18c-.88-1.39-2.71-1.8-4.1-.92l-23.48,14.87c-1.39,.88-1.8,2.71-.92,4.1l2.65,4.18Z"/>
    <path class="cls-1" d="M132.24,456.87v-36.14c0-.83,.67-1.5,1.5-1.5h9.39v26.74c0,6.02-4.88,10.9-10.9,10.9h0Z"/>
    <path class="cls-1" d="M189.14,430.03c4.58,0,8.98-1.82,12.22-5.06s5.06-7.64,5.06-12.22-1.82-8.98-5.06-12.22c-3.24-3.24-7.64-5.06-12.22-5.06v10.86c1.7,0,3.33,.68,4.54,1.88,1.2,1.2,1.88,2.84,1.88,4.54s-.68,3.34-1.88,4.54c-1.2,1.2-2.84,1.88-4.54,1.88v10.86Z"/>
    <path class="cls-1" d="M732.5,394.41h-54.2v10.54h43.66c5.82,0,10.54-4.72,10.54-10.54h0Z"/>
    <path class="cls-1" d="M657.22,455.82h57.17v-10.54h-46.63c-5.82,0-10.54,4.72-10.54,10.54h0Z"/>
    <path class="cls-1" d="M678.29,420.16h36.09v10.54h-36.09v-10.54Z"/>
    <path class="cls-1" d="M714.15,455.82c4.85-.01,9.49-1.95,12.92-5.39,3.42-3.44,5.4-7.49,5.38-12.34,0-4.85-1.95-9.49-5.38-12.91-3.44-3.42-8.09-5.04-12.95-5.02l.03,10.54c2.06,0,4.04,.48,5.5,1.94,1.47,1.45,2.29,3.43,2.29,5.49s-.87,3.44-2.33,4.9c-1.45,1.46-3.43,2.26-5.49,2.26l.03,10.54h0Z"/>
    <path class="cls-1" d="M678.29,394.41c-3.39,0-6.69,.96-9.57,2.73-2.59,1.59-4.73,3.8-6.26,6.42-.17,.3-1.98,3.75-2.08,5.73h10.99c.65-1.29,1.61-2.44,2.84-3.19,1.24-.75,2.62-1.15,4.07-1.15v-10.54h.01Z"/>
    <path class="cls-1" d="M660.46,420.16c1.42,3.31,3.44,5.99,6.44,7.97s7.81,2.58,11.4,2.57v-10.54c-1.55,0-3.97,.04-5.46,.04-1.98,0-3.47,0-4.95-.04h-7.43Z"/>
    <path class="cls-1" d="M319.45,395.4h57.45v10.9h-46.55c-6.02,0-10.9-4.88-10.9-10.9h0Z"/>
    <path class="cls-1" d="M349.16,421.15h27.73v10.9h-16.84c-6.02,0-10.9-4.88-10.9-10.9h0Z"/>
    <path class="cls-1" d="M332.32,446.91h44.57v10.9h-44.57v-10.9Z"/>
    <path class="cls-1" d="M322.5,457.8l2.69-32.41c.49-5.94,5.45-10.5,11.41-10.5h0l-3.57,42.91h-10.53Z"/>
    <path d="M376.4,395.4c4.86,0,9.52,1.93,12.96,5.37s5.37,8.1,5.37,12.96-1.93,9.52-5.37,12.96-8.1,5.37-12.96,5.37v-10.83c1.99,0,3.89-.79,5.3-2.2,1.41-1.41,2.2-3.31,2.2-5.3s-.79-3.89-2.2-5.3c-1.41-1.41-3.31-2.2-5.3-2.2v-10.83Z"/>
    <path d="M376.4,421.15c4.86,0,9.52,1.93,12.96,5.37s5.37,8.1,5.37,12.96-1.93,9.52-5.37,12.96-8.1,5.37-12.96,5.37v-10.85c1.98,0,3.88-.79,5.28-2.19s2.19-3.3,2.19-5.28-.79-3.88-2.19-5.28-3.3-2.19-5.28-2.19v-10.87Z"/>
    <path class="cls-2" d="M333.51,245.59c-43.34-44.08-27.81-96.35-15.08-115.75-36.45,41.87-28.01,95.43-18.78,115.75,17.24,50.73,69.78,67.52,93.89,69.57,54.49,4.64,86.71-32.94,100.66-57.26-6.9,8.37-30.17,19.29-41.56,23.4-47.1,17.24-99.12-16.21-119.13-35.71h0Z"/>
    <path class="cls-6" d="M518.76,183.49c0,53.03-42.99,96.01-96.01,96.01-25.78,0-49.17-10.16-66.41-26.67,12.71,5.52,26.72,8.58,41.46,8.58,20.61,0,39.83-5.99,56-16.33,.03,0,.06-.02,.09-.06,33.03-17.42,55.53-52.1,55.53-92.06,0-4.17-.24-8.28-.73-12.33,6.46,12.9,10.08,27.46,10.08,42.85h0Z"/>
    <path class="cls-5" d="M482.68,106c28.33,43.36,16.14,101.48-27.22,129.81-21.08,13.77-45.64,17.96-68.56,13.67,13.34-2.27,26.43-7.26,38.49-15.13,16.85-11.01,29.37-26.18,37.07-43.27,.02-.02,.04-.04,.04-.1,17.7-31.89,17.57-72.27-3.77-104.94-2.23-3.41-4.62-6.64-7.18-9.69,12.18,7.1,22.92,17.07,31.14,29.65h-.01Z"/>
    <path class="cls-3" d="M461.25,139.15c0,31.9-15.09,60.29-38.51,78.39,2.56-9.87,3.93-20.23,3.93-30.9,0-42.78-21.85-80.43-54.98-102.44-2.4-1.59-4.85-3.09-7.35-4.5-.03-.02-.06-.05-.08-.06-13.21-8.93-24.14-20.97-31.74-35.06-7.22-13.31-11.45-28.48-11.84-44.58,13.37,20.24,33.98,35.3,58.14,41.46,2.61,.67,5.26,1.23,7.95,1.68,27.05,6.9,49.66,24.94,62.62,48.96,7.58,14,11.87,30.02,11.87,47.05h-.01Z"/>
    <path class="cls-2" d="M325.54,78.82c-10.34-8.21-17.06-20.78-17.36-34.93-55.44,20.77-93.95,74.76-93.95,137.48,0,18.53,3.44,36.24,9.75,52.54-1.41-7.81-2.14-15.85-2.14-24.06,0-64.21,43.8-117.3,103.7-131.02h0Z"/>
  </g>
</svg>