<svg width="830" height="830" viewBox="0 0 830 830" fill="none" xmlns="http://www.w3.org/2000/svg">
<path d="M624.649 492C668.149 455.5 660.816 367.167 650.649 325C650.649 367.8 624.149 416 610.149 435C588.149 468.5 536.483 497 512.649 503C497.149 508.5 442.649 516.5 402.149 500.5C410.549 512.5 443.316 524.833 458.649 529.5C546.649 550.3 604.149 511 624.649 492Z" fill="url(#paint0_linear_722_1840)"/>
<path d="M430.649 258.5C371.449 225.7 338.316 176.5 329.149 156C274.749 176.4 235.316 218.667 222.149 237C154.549 338.2 168.15 432.333 183.65 467C221.25 581.8 327.316 622.167 375.65 628C516.049 646 599.15 554.5 623.15 506.5C607.949 530.1 554.649 547 530.15 551C454.95 559.8 389.149 513.333 365.649 489C313.649 449.8 312.649 379.667 318.649 349.5C332.649 264.7 399.149 253.5 430.649 258.5Z" fill="url(#paint1_linear_722_1840)"/>
<path d="M217.65 429C236.65 292.5 312.983 276.667 352.65 267C344.15 277.5 324.15 293.5 308.65 309C249.65 361.5 241.15 437.5 247.15 473.5C256.15 564 308.65 599 323.15 614L304.65 605.5L286.65 596L268.15 583L259.15 576.5L250.65 569C214.65 520.6 213.483 455.667 217.65 429Z" fill="url(#paint2_linear_722_1840)"/>
<path d="M363.649 232C334.049 214.8 321.982 177 319.649 160C240.049 192 202.128 259.5 186.149 305.5C159.749 381.5 175.149 446.167 186.149 469C174.149 400.5 209.816 332.833 231.149 307.5C277.149 249 335.649 236.5 363.649 232Z" fill="url(#paint3_linear_722_1840)"/>
<path d="M319.649 160L329.149 156C349.149 196.4 386.983 229.833 403.649 241.5C394.449 242.7 380.816 239.667 375.149 238C334.349 219.2 320.983 178.167 319.649 160Z" fill="url(#paint4_linear_722_1840)"/>
<path d="M245.149 342C271.949 245.6 350.149 218 400.649 239L429.149 258.5H398.149C316.949 262.5 261.316 315.5 245.149 342Z" fill="url(#paint5_linear_722_1840)"/>
<path d="M352.149 623C304.149 597 272.483 520.833 262.649 486C240.553 379.783 301.742 318.319 337.649 298.5C270.567 385.112 296.747 476.01 318.649 511C373.849 608.6 488.149 606.833 538.649 594.5C460.249 644.5 381.816 634.833 352.149 623Z" fill="url(#paint6_linear_722_1840)"/>
<path d="M362.149 486.5C291.749 414.9 316.982 330 337.649 298.5C278.449 366.5 292.149 453.5 307.149 486.5C335.149 568.9 420.482 596.167 459.649 599.5C548.149 607.032 600.482 546 623.149 506.5C611.949 520.1 574.149 537.833 555.649 544.5C479.149 572.5 394.649 518.167 362.149 486.5Z" fill="url(#paint7_linear_722_1840)"/>
<path d="M361.118 232.378C361.994 232.211 362.839 232.085 363.649 232C362.937 232.116 362.265 232.218 361.628 232.308L360.935 232.413C325.626 239.313 238.695 311.073 221.649 407.5C215.816 437.5 222.649 519 250.649 569C229.149 555.5 191.381 499.7 182.981 464.5C179.24 401.534 202.149 274.749 340.649 235.5C350.655 232.665 353.203 233.444 361.118 232.378Z" fill="url(#paint8_linear_722_1840)"/>
<path d="M418.733 139C375.933 130.6 350.566 104.833 343.233 93C336.433 151.8 390.733 204.833 418.733 224C453.933 245.6 480.733 285.333 489.733 302.5C514.933 334.1 507.566 407.667 500.733 440.5C585.533 390.5 582.066 301.333 569.733 263C542.933 178.6 457.9 145.167 418.733 139Z" fill="url(#paint9_linear_722_1840)"/>
<path d="M516.232 254.5C495.032 213.7 399.732 168.167 354.732 150.5C361.132 172.5 396.649 208.5 419.149 225C452.649 245.5 485.399 291.833 496.232 314.5C513.149 357 506.149 417 500.649 440.5C579.049 383.3 543.899 291.667 516.232 254.5Z" fill="url(#paint10_linear_722_1840)"/>
<path d="M622.649 276.5C612.249 236.5 566.983 198.167 545.649 184C571.249 201.6 592.149 255.5 594.149 285.5C601.649 332 580.649 379.5 567.149 402.5C553.149 430 517.149 462.5 466.149 482.5C546.549 486.5 598.649 426.5 614.649 396C637.849 346.4 629.649 295.667 622.649 276.5Z" fill="url(#paint11_linear_722_1840)"/>
<path d="M61 673.06H110C116.075 673.06 121 677.984 121 684.06V684.06H72C65.9249 684.06 61 679.135 61 673.06V673.06Z" fill="black"/>
<path d="M286 684.06H338C344.075 684.06 349 679.135 349 673.06V673.06H297C290.925 673.06 286 677.984 286 684.06V684.06Z" fill="black"/>
<path d="M607 684.06H546C539.925 684.06 535 679.135 535 673.06V673.06H596C602.075 673.06 607 677.984 607 684.06V684.06Z" fill="black"/>
<path d="M178 673.06H236V684.06H189C182.925 684.06 178 679.135 178 673.06V673.06Z" fill="black"/>
<path d="M178 700.071C178 698.408 179.348 697.06 181.012 697.06H236V708.06H185.988C181.576 708.06 178 704.483 178 700.071V700.071Z" fill="black"/>
<path d="M61 702.06H110C116.075 702.06 121 706.984 121 713.06V713.06H72C65.9249 713.06 61 708.135 61 702.06V702.06Z" fill="black"/>
<path d="M286 710.06H338C344.075 710.06 349 705.135 349 699.06V699.06H297C290.925 699.06 286 703.984 286 710.06V710.06Z" fill="black"/>
<path d="M286 736.06H338C344.075 736.06 349 731.135 349 725.06V725.06H297C290.925 725.06 286 729.984 286 736.06V736.06Z" fill="black"/>
<path d="M45 735.059V684.059C45 677.984 49.9249 673.059 56 673.059V673.059V724.059C56 730.134 51.0751 735.059 45 735.059V735.059Z" fill="black"/>
<path d="M273 735.059V695.059C273 688.984 277.925 684.059 284 684.059V684.059V724.059C284 730.134 279.075 735.059 273 735.059V735.059Z" fill="black"/>
<path d="M631 684.06H683C689.075 684.06 694 679.135 694 673.06V673.06H642C635.925 673.06 631 677.984 631 684.06V684.06Z" fill="black"/>
<path d="M631 710.06H683C689.075 710.06 694 705.135 694 699.06V699.06H642C635.925 699.06 631 703.984 631 710.06V710.06Z" fill="black"/>
<path d="M630 736.06H682C688.075 736.06 693 731.135 693 725.06V725.06H641C634.925 725.06 630 729.984 630 736.06V736.06Z" fill="black"/>
<path d="M618 735.059V695.059C618 688.984 622.925 684.059 629 684.059V684.059V724.059C629 730.134 624.075 735.059 618 735.059V735.059Z" fill="black"/>
<path d="M491 736.06C489.343 736.06 488 734.716 488 733.06V703.06C488 701.403 489.343 700.06 491 700.06H496C497.657 700.06 499 701.403 499 703.06V733.06C499 734.716 497.657 736.06 496 736.06H491Z" fill="black"/>
<path d="M568 736.06C566.343 736.06 565 734.716 565 733.06V696.06C565 694.403 566.343 693.06 568 693.06H573C574.657 693.06 576 694.403 576 696.06V733.06C576 734.716 574.657 736.06 573 736.06H568Z" fill="black"/>
<path d="M141 735.059V684.059C141 677.984 145.925 673.059 152 673.059V673.059V724.059C152 730.134 147.075 735.059 141 735.059V735.059Z" fill="black"/>
<path d="M247.054 734.989L207 707.852L212.957 699.059L244.218 720.238C249.074 723.529 250.344 730.132 247.054 734.989V734.989Z" fill="black"/>
<path d="M486.647 696.983C485.761 698.383 483.907 698.799 482.508 697.912L458.803 682.898C457.403 682.011 456.987 680.158 457.874 678.758L460.549 674.534C461.436 673.135 463.289 672.719 464.689 673.605L488.394 688.62C489.793 689.506 490.209 691.359 489.323 692.759L486.647 696.983Z" fill="black"/>
<path d="M498.549 696.983C499.436 698.383 501.289 698.799 502.689 697.912L526.393 682.898C527.793 682.011 528.209 680.158 527.323 678.758L524.647 674.534C523.761 673.135 521.907 672.719 520.508 673.605L496.803 688.62C495.403 689.506 494.987 691.359 495.874 692.759L498.549 696.983Z" fill="black"/>
<path d="M178 735.059V698.577C178 697.739 178.679 697.059 179.517 697.059H189V724.059C189 730.134 184.075 735.059 178 735.059V735.059Z" fill="black"/>
<mask id="path-34-inside-1_722_1840" fill="white">
<path d="M235.447 707.957C240.074 707.958 244.513 706.12 247.786 702.849C251.058 699.577 252.897 695.139 252.898 690.511C252.899 685.883 251.061 681.445 247.789 678.172C244.517 674.899 240.079 673.06 235.452 673.06L235.45 684.026C237.169 684.026 238.818 684.71 240.033 685.925C241.249 687.141 241.932 688.79 241.931 690.509C241.931 692.229 241.248 693.877 240.032 695.093C238.816 696.308 237.167 696.991 235.448 696.991L235.447 707.957Z"/>
</mask>
<path d="M235.447 707.957C240.074 707.958 244.513 706.12 247.786 702.849C251.058 699.577 252.897 695.139 252.898 690.511C252.899 685.883 251.061 681.445 247.789 678.172C244.517 674.899 240.079 673.06 235.452 673.06L235.45 684.026C237.169 684.026 238.818 684.71 240.033 685.925C241.249 687.141 241.932 688.79 241.931 690.509C241.931 692.229 241.248 693.877 240.032 695.093C238.816 696.308 237.167 696.991 235.448 696.991L235.447 707.957Z" stroke="black" stroke-width="21.8" mask="url(#path-34-inside-1_722_1840)"/>
<path d="M785 674.06H730.28V684.7H774.36C780.236 684.7 785 679.936 785 674.06V674.06Z" fill="black"/>
<path d="M709 736.06H766.72V725.42H719.64C713.764 725.42 709 730.183 709 736.06V736.06Z" fill="black"/>
<path d="M730.28 700.06H766.72V710.7H730.28V700.06Z" fill="black"/>
<path d="M367 673.06H425V684.06H378C371.925 684.06 367 679.135 367 673.06V673.06Z" fill="black"/>
<path d="M397 699.06H425V710.06H408C401.925 710.06 397 705.135 397 699.06V699.06Z" fill="black"/>
<path d="M380 725.06H425V736.06H380V725.06Z" fill="black"/>
<path d="M370.08 736.059L372.799 703.343C373.297 697.35 378.306 692.739 384.32 692.739V692.739L380.72 736.059H370.08Z" fill="black"/>
<mask id="path-42-inside-2_722_1840" fill="white">
<path d="M424.5 673.059C429.407 673.059 434.112 675.008 437.581 678.478C441.051 681.947 443 686.653 443 691.559C443 696.466 441.051 701.171 437.581 704.641C434.112 708.11 429.407 710.059 424.5 710.059L424.5 699.127C426.507 699.127 428.432 698.33 429.851 696.911C431.271 695.491 432.068 693.567 432.068 691.559C432.068 689.552 431.271 687.627 429.851 686.208C428.432 684.789 426.507 683.991 424.5 683.991L424.5 673.059Z"/>
</mask>
<path d="M424.5 673.059C429.407 673.059 434.112 675.008 437.581 678.478C441.051 681.947 443 686.653 443 691.559C443 696.466 441.051 701.171 437.581 704.641C434.112 708.11 429.407 710.059 424.5 710.059L424.5 699.127C426.507 699.127 428.432 698.33 429.851 696.911C431.271 695.491 432.068 693.567 432.068 691.559C432.068 689.552 431.271 687.627 429.851 686.208C428.432 684.789 426.507 683.991 424.5 683.991L424.5 673.059Z" stroke="black" stroke-width="18.7904" mask="url(#path-42-inside-2_722_1840)"/>
<mask id="path-43-inside-3_722_1840" fill="white">
<path d="M424.5 699.059C429.407 699.059 434.112 701.008 437.581 704.478C441.051 707.947 443 712.653 443 717.559C443 722.466 441.051 727.171 437.581 730.641C434.112 734.11 429.407 736.059 424.5 736.059L424.5 725.104C426.501 725.104 428.42 724.309 429.835 722.894C431.25 721.479 432.045 719.56 432.045 717.559C432.045 715.558 431.25 713.639 429.835 712.224C428.42 710.81 426.501 710.015 424.5 710.015L424.5 699.059Z"/>
</mask>
<path d="M424.5 699.059C429.407 699.059 434.112 701.008 437.581 704.478C441.051 707.947 443 712.653 443 717.559C443 722.466 441.051 727.171 437.581 730.641C434.112 734.11 429.407 736.059 424.5 736.059L424.5 725.104C426.501 725.104 428.42 724.309 429.835 722.894C431.25 721.479 432.045 719.56 432.045 717.559C432.045 715.558 431.25 713.639 429.835 712.224C428.42 710.81 426.501 710.015 424.5 710.015L424.5 699.059Z" stroke="black" stroke-width="18.7904" mask="url(#path-43-inside-3_722_1840)"/>
<path d="M766.481 736.06C771.375 736.047 776.064 734.091 779.515 730.621C782.967 727.151 784.966 723.061 784.954 718.167C784.941 713.273 782.985 708.584 779.515 705.132C776.045 701.681 771.348 700.047 766.454 700.06L766.481 710.671C768.561 710.666 770.557 711.188 772.031 712.655C773.506 714.122 774.337 716.115 774.342 718.194C774.348 720.274 773.46 721.663 771.993 723.137C770.526 724.612 768.533 725.443 766.453 725.448L766.481 736.06Z" fill="black"/>
<path fill-rule="evenodd" clip-rule="evenodd" d="M717.419 679.499C720.871 676.029 725.56 674.073 730.454 674.06L730.481 684.671C728.401 684.677 726.409 685.508 724.942 686.983C724.346 687.582 723.857 688.267 723.486 689.009H712.384C713.075 685.435 714.814 682.117 717.419 679.499ZM713.639 700.009C714.557 702.074 715.854 703.972 717.487 705.596C720.957 709.047 725.634 710.633 730.528 710.621L730.5 700.009H713.639Z" fill="black"/>
<defs>
<linearGradient id="paint0_linear_722_1840" x1="668.649" y1="337.5" x2="427.649" y2="509" gradientUnits="userSpaceOnUse">
<stop stop-color="#E79DFF"/>
<stop offset="0.526508" stop-color="#FE5C3F"/>
<stop offset="1" stop-color="#DA0F21"/>
</linearGradient>
<linearGradient id="paint1_linear_722_1840" x1="302.649" y1="156" x2="396.979" y2="630.312" gradientUnits="userSpaceOnUse">
<stop stop-color="#F2EDB7"/>
<stop offset="0.216055" stop-color="#FF3032"/>
<stop offset="0.408283" stop-color="#F8A474"/>
<stop offset="0.648233" stop-color="#E9072E"/>
<stop offset="1" stop-color="#991D1E"/>
</linearGradient>
<linearGradient id="paint2_linear_722_1840" x1="297.65" y1="297" x2="250.65" y2="589.5" gradientUnits="userSpaceOnUse">
<stop stop-color="#FC2115"/>
<stop offset="0.497771" stop-color="#D50B28"/>
<stop offset="1" stop-color="#6E061F"/>
</linearGradient>
<linearGradient id="paint3_linear_722_1840" x1="284.649" y1="160" x2="177.649" y2="457" gradientUnits="userSpaceOnUse">
<stop offset="0.0821057" stop-color="#FDE386"/>
<stop offset="0.397975" stop-color="#FF9C38"/>
<stop offset="1" stop-color="#FB251A"/>
</linearGradient>
<linearGradient id="paint4_linear_722_1840" x1="320.649" y1="163" x2="361.899" y2="241.774" gradientUnits="userSpaceOnUse">
<stop stop-color="#FDB75D"/>
<stop offset="0.305922" stop-color="#FE9644"/>
<stop offset="1" stop-color="#FF4A0F"/>
</linearGradient>
<linearGradient id="paint5_linear_722_1840" x1="402.149" y1="243" x2="248.649" y2="334" gradientUnits="userSpaceOnUse">
<stop stop-color="#F92410"/>
<stop offset="1" stop-color="#FCAE37"/>
</linearGradient>
<linearGradient id="paint6_linear_722_1840" x1="285.649" y1="371.5" x2="398.529" y2="633.085" gradientUnits="userSpaceOnUse">
<stop stop-color="#F7252E"/>
<stop offset="0.500993" stop-color="#930021"/>
<stop offset="1" stop-color="#A10325"/>
</linearGradient>
<linearGradient id="paint7_linear_722_1840" x1="319.649" y1="358" x2="604.649" y2="567" gradientUnits="userSpaceOnUse">
<stop stop-color="#E5A084"/>
<stop offset="0.484478" stop-color="#FE2F39"/>
<stop offset="0.815" stop-color="#FC2050"/>
<stop offset="1" stop-color="#B627FE"/>
</linearGradient>
<linearGradient id="paint8_linear_722_1840" x1="273.315" y1="231" x2="205.481" y2="542" gradientUnits="userSpaceOnUse">
<stop stop-color="#FDDF83"/>
<stop offset="0.238976" stop-color="#FFC760"/>
<stop offset="0.525881" stop-color="#FE4C25"/>
<stop offset="1" stop-color="#BB0527"/>
</linearGradient>
<linearGradient id="paint9_linear_722_1840" x1="459.473" y1="93" x2="459.473" y2="440.5" gradientUnits="userSpaceOnUse">
<stop stop-color="#FEE487"/>
<stop offset="0.543942" stop-color="#FD8D4A"/>
<stop offset="1" stop-color="#F70435"/>
</linearGradient>
<linearGradient id="paint10_linear_722_1840" x1="366.149" y1="159.5" x2="451.803" y2="437.5" gradientUnits="userSpaceOnUse">
<stop stop-color="#FFC560"/>
<stop offset="0.505" stop-color="#FE3D27"/>
<stop offset="1" stop-color="#D0031F"/>
</linearGradient>
<linearGradient id="paint11_linear_722_1840" x1="590.149" y1="208" x2="487.149" y2="469.5" gradientUnits="userSpaceOnUse">
<stop stop-color="#D584FF"/>
<stop offset="0.505778" stop-color="#FE563A"/>
<stop offset="1" stop-color="#C6052D"/>
</linearGradient>
</defs>
</svg>
